# AST/ASF file generated using VICON BodyLanguage
# -----------------------------------------------
:version 1.10
:name VICON
:units
  mass 1.0
  length 0.45
  angle deg
:documentation
   .ast/.asf automatically generated from VICON data using
   VICON BodyBuilder and BodyLanguage model FoxedUp or BRILLIANT.MOD
:root
   order TX TY TZ RX RY RZ
   axis XYZ
   position 0 0 0  
   orientation 0 0 0 
:bonedata
  begin
     id 1 
     name lhipjoint
     direction 0.54267 -0.795011 0.271047 
     length 2.39899 
     axis 0 0 0  XYZ
  end
  begin
     id 2 
     name lfemur
     direction 0.34202 -0.939693 0  
     length 7.49701  
     axis 0 0 20  XYZ
    dof rx ry rz
    limits (-160.0 20.0)
           (-70.0 70.0)
           (-60.0 70.0)
  end
  begin
     id 3 
     name ltibia
     direction 0.34202 -0.939693 0   
     length 8.1668   
     axis 0 0 20   XYZ
    dof rx
    limits (-10.0 170.0)
  end
  begin
     id 4 
     name lfoot
     direction 0.0736283 -0.202292 0.976554   
     length 2.13544   
     axis -90 7.62852e-016 20   XYZ
    dof rx rz
    limits (-45.0 90.0)
           (-70.0 20.0)
  end
  begin
     id 5 
     name ltoes
     direction 1.53557e-011 -4.22024e-011 1   
     length 1.07411   
     axis -90 7.62852e-016 20   XYZ
    dof rx
    limits (-90.0 20.0)
  end
  begin
     id 6 
     name rhipjoint
     direction -0.538061 -0.797813 0.272002   
     length 2.39057  
     axis 0 0 0  XYZ 
  end
  begin
     id 7 
     name rfemur
     direction -0.34202 -0.939693 0   
     length 7.50152   
     axis 0 0 -20   XYZ
    dof rx ry rz
    limits (-160.0 20.0)
           (-70.0 70.0)
           (-70.0 60.0)
  end
  begin
     id 8 
     name rtibia
     direction -0.34202 -0.939693 0   
     length 8.05793   
     axis 0 0 -20   XYZ
    dof rx
    limits (-10.0 170.0)
 end
 begin
     id 9 
     name rfoot
     direction -0.0765195 -0.210236 0.974652   
     length 2.28698  
     axis -90 -7.62852e-016 -20   XYZ
    dof rx rz
    limits (-45.0 90.0)
           (-20.0 70.0)
  end
  begin
     id 10 
     name rtoes
     direction -1.53542e-011 -4.21847e-011 1   
     length 1.14762   
     axis -90 -7.62852e-016 -20   XYZ
    dof rx
    limits (-90.0 20.0)
  end
  begin
     id 11 
     name lowerback
     direction -0.0217239 0.996592 -0.0795765   
     length 2.08176   
     axis 0 0 0   XYZ
    dof rx ry rz
    limits (-20.0 45.0)
           (-30.0 30.0)
           (-30.0 30.0)
  end
  begin
     id 12 
     name upperback
     direction -0.00563773 0.999651 -0.0258155   
     length 2.08898   
     axis 0 0 0   XYZ
    dof rx ry rz
    limits (-20.0 45.0)
           (-30.0 30.0)
           (-30.0 30.0)
  end
  begin
     id 13 
     name thorax
     direction 0.0032706 0.999923 0.0119599   
     length 2.0968   
     axis 0 0 0   XYZ
    dof rx ry rz
    limits (-20.0 45.0)
           (-30.0 30.0)
           (-30.0 30.0)
  end
  begin
     id 14 
     name lowerneck
     direction -0.0285886 0.99568 0.0883427   
     length 1.81272   
     axis 0 0 0   XYZ
    dof rx ry rz
    limits (-20.0 45.0)
           (-30.0 30.0)
           (-30.0 30.0)
  end
  begin
     id 15 
     name upperneck
     direction 0.0807535 0.97985 -0.18268   
     length 1.82518   
     axis 0 0 0   XYZ
    dof rx ry rz
    limits (-20.0 45.0)
           (-30.0 30.0)
           (-30.0 30.0)
  end
  begin
     id 16
     name head
     direction 0.0236605 0.997053 -0.0729767  
     length 1.84443  
     axis 0 0 0   XYZ
    dof rx ry rz
    limits (-20.0 45.0)
           (-30.0 30.0)
           (-30.0 30.0)
  end
  begin
     id 17 
     name lclavicle
     direction 0.918986 0.39378 -0.0200683  
     length 3.27822  
     axis 0 0 0   XYZ
    dof ry rz
    limits (-20.0 10.0)
           (0.0 20.0)
  end
  begin
     id 18 
     name lhumerus
     direction 1 -4.4897e-011 2.09544e-027   
     length 5.5568   
     axis 180 -30 -90   XYZ
    dof rx ry rz
    limits (-60.0 90.0)
           (-90.0 90.0)
           (-90.0 90.0)
  end
  begin
     id 19
     name lradius
     direction 1 -4.48957e-011 -1.27696e-026   
     length 3.63979   
     axis 180 -30 -90   XYZ
    dof rx
    limits (-10.0 170.0)
  end
  begin
     id 20
     name lwrist
     direction 1 -4.49001e-011 -1.49001e-026   
     length 1.8199   
     axis 9.0955e-015 90 90   XYZ
    dof ry
    limits (-180.0 0.0)
 end
  begin
     id 21 
     name lhand
     direction 1 -4.48709e-011 -2.9758e-026   
     length 0.569419   
     axis 1.90115e-014 90 90   XYZ
    dof rx rz
    limits (-90.0 90.0)
           (-45.0 45.0)
  end
  begin
     id 22 
     name lfingers
     direction 1 -4.49175e-011 -5.96505e-026   
     length 0.45908   
     axis 3.80223e-014 90 90   XYZ
    dof rx
    limits (0.0 90.0)
  end
  begin
     id 23
     name lthumb
     direction 0.707107 -6.34864e-011 0.707107   
     length 0.65915   
     axis -90 45 -3.84942e-014   XYZ
    dof rx rz
    limits (-45.0 45.0)
           (-45.0 45.0)
  end
  begin
     id 24 
     name rclavicle
     direction -0.911913 0.396426 -0.106115   
     length 3.46301  
     axis 0 0 0   XYZ 
    dof ry rz
    limits (-10.0 20.0)
           (-20.0 0.0)
  end
  begin
     id 25 
     name rhumerus
     direction -1 -4.48965e-011 7.78516e-028  
     length 5.34339   
     axis 180 30 90   XYZ
    dof rx ry rz
    limits (-90.0 60.0)
           (-90.0 90.0)
           (-90.0 90.0)
  end
  begin
     id 26 
     name rradius
     direction -1 -4.48948e-011 -5.79823e-027   
     length 3.65101   
     axis 180 30 90   XYZ
    dof rx
    limits (-10.0 170.0)
  end
  begin
     id 27 
     name rwrist
     direction -1 -4.48995e-011 -1.48996e-026   
     length 1.8255   
     axis 9.0955e-015 -90 -90   XYZ
    dof ry
    limits (-180.0 0.0)
  end
  begin
     id 28
     name rhand
     direction -1 -4.48957e-011 -2.97937e-026   
     length 0.694249   
     axis 1.90115e-014 -90 -90   XYZ
    dof rx rz
    limits (-90.0 90.0)
           (-45.0 45.0)
  end
  begin
     id 29
     name rfingers
     direction -1 -4.4898e-011 -5.95943e-026   
     length 0.559721   
     axis 3.80223e-014 -90 -90   XYZ
    dof rx
    limits (0.0 90.0)
  end
  begin
     id 30
     name rthumb
     direction -0.707107 -6.34969e-011 0.707107   
     length 0.803651   
     axis -90 -45 3.84942e-014   XYZ
    dof rx rz
    limits (-45.0 45.0)
           (-45.0 45.0)
  end
:hierarchy
  begin
    root lhipjoint rhipjoint lowerback
    lhipjoint lfemur
    lfemur ltibia
    ltibia lfoot
    lfoot ltoes
    rhipjoint rfemur
    rfemur rtibia
    rtibia rfoot
    rfoot rtoes
    lowerback upperback
    upperback thorax
    thorax lowerneck lclavicle rclavicle
    lowerneck upperneck
    upperneck head
    lclavicle lhumerus
    lhumerus lradius
    lradius lwrist
    lwrist lhand lthumb
    lhand lfingers
    rclavicle rhumerus
    rhumerus rradius
    rradius rwrist
    rwrist rhand rthumb
    rhand rfingers
  end

#!OML:ASF H:\Terrain\Walking\May29\JustinRory\rory.ASF
:FULLY-SPECIFIED
:DEGREES
75
root 11.1656 18.1043 -17.5959 0.904504 56.1988 -1.21034
lowerback -1.96777 -1.87912 -7.04275
upperback 0.297681 -2.3088 -0.651488
thorax 1.66507 -1.20885 3.1884
lowerneck 2.525 -17.4563 -14.3392
upperneck 26.5783 -27.266 14.2404
head 12.5024 -12.7104 4.09001
rclavicle -3.1408e-014 -9.54166e-015
rhumerus -33.5856 -13.4683 -64.4796
rradius 44.919
rwrist 6.96865
rhand -18.7963 47.0881
rfingers 7.12502
rthumb 7.50175 17.2411
lclavicle -3.1408e-014 -9.54166e-015
lhumerus -34.2373 9.69767 81.7298
lradius 25.7966
lwrist -6.92026
lhand -19.7796 20.8163
lfingers 7.12502
lthumb 6.55255 50.6949
rfemur -11.345 15.9282 13.9324
rtibia 23.8871
rfoot -12.4554 -7.27999
rtoes 13.3381
lfemur -1.55301 -5.15367 -16.6287
ltibia 19.562
lfoot -22.1377 14.9137
ltoes -4.74138
76
root 11.16 18.1073 -17.601 0.777313 56.103 -1.34424
lowerback -1.90955 -1.93672 -7.00314
upperback 0.324767 -2.39195 -0.586852
thorax 1.67047 -1.2515 3.23085
lowerneck 1.38579 -17.0252 -14.6355
upperneck 27.3797 -26.844 14.7873
head 13.1347 -12.3847 4.30141
rclavicle 6.70898e-016 -2.54444e-014
rhumerus -32.9988 -13.0818 -64.2512
rradius 44.5816
rwrist 6.37345
rhand -17.193 47.4991
rfingers 7.12502
rthumb 9.0491 17.7132
lclavicle 6.70898e-016 -2.54444e-014
lhumerus -34.3958 9.32439 81.9482
lradius 25.8761
lwrist -5.97359
lhand -20.6172 21.1189
lfingers 7.12502
lthumb 5.74398 51.021
rfemur -11.3967 16.0014 14.0179
rtibia 23.924
rfoot -12.4713 -7.29827
rtoes 13.5083
lfemur -1.56769 -4.90973 -16.5389
ltibia 19.5605
lfoot -21.8781 15.0398
ltoes -5.96343
77
root 11.1548 18.1098 -17.6057 0.539207 55.8806 -1.58162
lowerback -1.88049 -1.86513 -6.85864
upperback 0.372756 -2.30033 -0.611059
thorax 1.68688 -1.2061 3.12924
lowerneck 2.22895 -17.2966 -15.0322
upperneck 26.6856 -27.1856 14.8063
head 12.8104 -12.6645 4.3569
rclavicle -5.36719e-014 -1.66979e-014
rhumerus -32.6522 -13.4558 -63.8805
rradius 44.3377
rwrist 7.59007
rhand -14.0981 45.9921
rfingers 7.12502
rthumb 12.0346 16.3581
lclavicle -5.36719e-014 -1.66979e-014
lhumerus -34.4771 8.66446 82.0325
lradius 25.8784
lwrist -5.48802
lhand -20.5819 20.5712
lfingers 7.12502
lthumb 5.77805 50.4724
rfemur -11.4423 16.0904 14.1727
rtibia 23.9541
rfoot -12.4977 -7.23521
rtoes 14.0151
lfemur -1.50938 -4.93095 -16.406
ltibia 19.5824
lfoot -22.1345 15.0183
ltoes -4.62234
78
root 11.1474 18.1081 -17.6098 0.674085 55.6439 -1.36739
lowerback -1.82808 -1.77604 -6.95918
upperback 0.406631 -2.17925 -0.72216
thorax 1.67929 -1.14609 3.0767
lowerneck 2.44856 -16.8705 -17.1688
upperneck 26.7661 -27.2374 17.1134
head 13.637 -12.6996 5.48857
rclavicle 3.92351e-014 1.59028e-015
rhumerus -32.4482 -13.7571 -63.557
rradius 44.1434
rwrist 9.22668
rhand -18.6403 46.086
rfingers 7.12502
rthumb 7.65235 16.2444
lclavicle 3.92351e-014 1.59028e-015
lhumerus -34.404 8.45378 82.0569
lradius 25.583
lwrist -5.34111
lhand -20.0468 18.5708
lfingers 7.12502
lthumb 6.29462 48.4572
rfemur -11.4964 15.8683 14.0271
rtibia 23.9705
rfoot -12.4697 -6.79223
rtoes 13.988
lfemur -1.45289 -4.87818 -16.5454
ltibia 19.6241
lfoot -22.4814 14.8675
ltoes -3.06683
79
root 11.1389 18.1067 -17.6158 0.745403 55.4464 -1.20641
lowerback -1.65541 -1.79475 -6.99057
upperback 0.408176 -2.21684 -0.773324
thorax 1.58701 -1.16179 3.04537
lowerneck 2.27249 -17.067 -15.9903
upperneck 26.5381 -27.2208 16.1717
head 13.1731 -12.6615 4.96785
rclavicle -5.11871e-014 5.56597e-015
rhumerus -32.0812 -13.4694 -63.4917
rradius 44.0205
rwrist 9.46575
rhand -20.4213 46.2528
rfingers 7.12502
rthumb 5.93309 16.3558
lclavicle -5.11871e-014 5.56597e-015
lhumerus -34.3843 8.93856 82.0432
lradius 25.2776
lwrist -5.2966
lhand -22.5859 20.7466
lfingers 7.12502
lthumb 3.84304 50.6916
rfemur -11.5441 15.463 13.9132
rtibia 24.0047
rfoot -12.4449 -6.22713
rtoes 12.8554
lfemur -1.39938 -4.64524 -16.6468
ltibia 19.6333
lfoot -22.5156 14.7877
ltoes -3.07577
80
root 11.1308 18.105 -17.6225 0.87897 55.2507 -0.977718
lowerback -1.50183 -1.8001 -7.03445
upperback 0.404678 -2.23432 -0.859274
thorax 1.49722 -1.16715 2.98552
lowerneck 2.28661 -16.9716 -16.6077
upperneck 26.4992 -27.2302 16.7136
head 13.3697 -12.6816 5.24437
rclavicle 6.07784e-014 1.98785e-014
rhumerus -31.6861 -12.9215 -63.5399
rradius 44.0364
rwrist 9.21317
rhand -19.1748 46.0426
rfingers 7.12502
rthumb 7.13641 16.1829
lclavicle 6.07784e-014 1.98785e-014
lhumerus -34.3855 9.5534 81.6548
lradius 24.994
lwrist -6.50798
lhand -22.2274 21.7372
lfingers 7.12502
lthumb 4.18915 51.6758
rfemur -11.6004 15.3277 13.7443
rtibia 24.0481
rfoot -12.4587 -5.94066
rtoes 10.9419
lfemur -1.37573 -4.35233 -16.7805
ltibia 19.6492
lfoot -22.4772 14.7003
ltoes -3.36755
81
root 11.122 18.1027 -17.6261 0.94681 55.0696 -0.822611
lowerback -1.38771 -1.74213 -7.10265
upperback 0.417495 -2.16323 -0.937498
thorax 1.43854 -1.12994 2.9488
lowerneck 1.99754 -17.0036 -17.138
upperneck 26.7463 -27.3999 17.0596
head 13.7388 -12.7455 5.37687
rclavicle -7.77248e-014 8.74653e-015
rhumerus -31.3539 -12.7124 -63.3932
rradius 44.1689
rwrist 8.53575
rhand -14.4361 46.3615
rfingers 7.12502
rthumb 11.7086 16.7087
lclavicle -7.77248e-014 8.74653e-015
lhumerus -34.3726 9.81963 81.2711
lradius 24.7704
lwrist -7.74577
lhand -20.7145 21.4347
lfingers 7.12502
lthumb 5.65 51.3394
rfemur -11.6198 15.3622 13.6161
rtibia 24.0463
rfoot -12.5011 -5.64233
rtoes 10.6611
lfemur -1.38818 -4.05442 -16.8599
ltibia 19.7482
lfoot -22.4315 14.6635
ltoes -3.86444
82
root 11.1154 18.104 -17.6261 0.79719 54.9044 -0.96499
lowerback -1.37016 -1.72136 -7.06688
upperback 0.470317 -2.13574 -0.92166
thorax 1.47971 -1.11871 2.94569
lowerneck 1.68399 -17.0985 -17.2049
upperneck 26.8579 -27.5467 17.0788
head 13.9019 -12.7873 5.32706
rclavicle 3.35449e-015 -1.98785e-014
rhumerus -30.9273 -12.7435 -63.2349
rradius 44.2321
rwrist 7.97668
rhand -10.7486 46.236
rfingers 7.12502
rthumb 15.2627 16.8191
lclavicle 3.35449e-015 -1.98785e-014
lhumerus -34.2566 10.1668 81.116
lradius 24.5016
lwrist -7.81103
lhand -20.8054 21.1403
lfingers 7.12502
lthumb 5.56223 51.0473
rfemur -11.6393 15.251 13.6749
rtibia 24.0131
rfoot -12.5507 -5.11291
rtoes 12.4481
lfemur -1.42691 -4.00851 -16.7779
ltibia 19.9035
lfoot -22.5233 14.7618
ltoes -3.91765
83
root 11.1079 18.1054 -17.6287 0.640799 54.7472 -1.19622
lowerback -1.37891 -1.71337 -6.93921
upperback 0.478826 -2.12657 -0.928984
thorax 1.48728 -1.11354 2.86694
lowerneck 1.71247 -17.095 -17.2442
upperneck 26.6399 -27.5897 17.3364
head 13.8697 -12.8018 5.41892
rclavicle -4.29126e-014 2.54444e-014
rhumerus -30.5747 -12.2748 -63.4233
rradius 44.2102
rwrist 7.79851
rhand -10.6387 44.8283
rfingers 7.12502
rthumb 15.3686 15.4194
lclavicle -4.29126e-014 2.54444e-014
lhumerus -34.1309 10.8661 80.7968
lradius 24.1134
lwrist -8.09885
lhand -21.1765 21.1863
lfingers 7.12502
lthumb 5.20395 51.1024
rfemur -11.6993 15.249 13.8034
rtibia 23.9577
rfoot -12.4941 -4.94396
rtoes 12.8392
lfemur -1.5653 -4.0436 -16.6342
ltibia 20.1054
lfoot -22.6989 14.8426
ltoes -3.89946
84
root 11.096 18.1005 -17.634 0.457892 54.5892 -1.43866
lowerback -1.30607 -1.68089 -6.80745
upperback 0.47363 -2.09286 -0.918981
thorax 1.4329 -1.09407 2.80746
lowerneck 1.81969 -17.0382 -17.2339
upperneck 26.3556 -27.54 17.5835
head 13.7594 -12.7807 5.52971
rclavicle -1.2424e-016 1.35174e-014
rhumerus -30.1378 -11.5187 -63.6892
rradius 44.1489
rwrist 6.93769
rhand -10.1973 43.5927
rfingers 7.12502
rthumb 15.7936 14.217
lclavicle -1.2424e-016 1.35174e-014
lhumerus -34.0663 11.0573 80.6501
lradius 23.9282
lwrist -8.35007
lhand -21.214 21.2959
lfingers 7.12502
lthumb 5.16769 51.2129
rfemur -11.7379 15.2505 13.9653
rtibia 23.8644
rfoot -12.3147 -4.93728
rtoes 11.022
lfemur -1.74806 -3.85872 -16.4496
ltibia 20.3613
lfoot -22.7521 14.799
ltoes -4.01786
85
root 11.0857 18.0953 -17.6384 0.413771 54.4722 -1.46456
lowerback -1.24321 -1.65718 -6.86741
upperback 0.500572 -2.06485 -0.887552
thorax 1.42605 -1.0813 2.87561
lowerneck 2.02338 -17.0212 -17.2489
upperneck 25.9038 -27.5108 17.7885
head 13.5566 -12.7888 5.62594
rclavicle 2.63887e-014 1.59028e-014
rhumerus -29.5948 -10.6308 -63.8864
rradius 44.0474
rwrist 5.62264
rhand -9.11816 42.5183
rfingers 7.12502
rthumb 16.8327 13.2279
lclavicle 2.63887e-014 1.59028e-014
lhumerus -34.0356 10.8949 80.7468
lradius 23.9067
lwrist -8.13254
lhand -21.5112 21.2751
lfingers 7.12502
lthumb 4.88078 51.1989
rfemur -11.7365 15.1789 13.9628
rtibia 23.767
rfoot -12.1489 -4.72605
rtoes 9.61507
lfemur -1.88412 -3.70735 -16.4105
ltibia 20.617
lfoot -22.8116 14.7184
ltoes -3.79614
86
root 11.0797 18.0948 -17.6476 0.452023 54.446 -1.40936
lowerback -1.17287 -1.67258 -6.90073
upperback 0.465085 -2.09166 -0.918246
thorax 1.35263 -1.09155 2.86449
lowerneck 2.27307 -17.0449 -17.3608
upperneck 25.5433 -27.5737 18.016
head 13.4303 -12.8441 5.72706
rclavicle -6.78601e-014 1.27222e-014
rhumerus -29.202 -9.59778 -64.1547
rradius 43.8923
rwrist 4.5351
rhand -8.82762 41.5399
rfingers 7.12502
rthumb 17.1124 12.2735
lclavicle -6.78601e-014 1.27222e-014
lhumerus -34.1563 10.9613 80.6286
lradius 23.8682
lwrist -8.25425
lhand -21.7431 21.34
lfingers 7.12502
lthumb 4.65684 51.2688
rfemur -11.725 15.3455 13.8743
rtibia 23.7092
rfoot -12.0671 -4.84232
rtoes 8.17577
lfemur -2.03056 -3.50194 -16.4044
ltibia 20.8275
lfoot -22.8805 14.3988
ltoes -3.11679
87
root 11.0744 18.0963 -17.6613 0.501771 54.4957 -1.40039
lowerback -1.10732 -1.7314 -6.79507
upperback 0.401233 -2.17891 -0.993228
thorax 1.25153 -1.12911 2.729
lowerneck 2.20348 -17.0865 -17.6018
upperneck 25.6555 -27.7202 18.2233
head 13.6149 -12.9048 5.79724
rclavicle 4.14963e-014 3.18055e-015
rhumerus -28.8704 -8.67605 -64.4789
rradius 43.767
rwrist 3.77701
rhand -9.00801 41.3628
rfingers 7.12502
rthumb 16.9387 12.0814
lclavicle 4.14963e-014 3.18055e-015
lhumerus -34.2525 10.9946 80.5027
lradius 23.8236
lwrist -8.17402
lhand -22.206 21.8464
lfingers 7.12502
lthumb 4.20982 51.7846
rfemur -11.7679 15.7908 13.7903
rtibia 23.6711
rfoot -12.0932 -5.27824
rtoes 7.3912
lfemur -2.27263 -3.04791 -16.3351
ltibia 21.0538
lfoot -22.7515 13.8615
ltoes -2.81063
88
root 11.0678 18.0975 -17.6752 0.765094 54.5689 -1.17255
lowerback -1.0789 -1.83367 -6.84626
upperback 0.353103 -2.31713 -1.07124
thorax 1.19825 -1.19492 2.6748
lowerneck 2.31979 -17.136 -17.751
upperneck 25.5136 -27.8384 18.3988
head 13.6216 -12.9731 5.86161
rclavicle 2.37051e-014 -7.95139e-016
rhumerus -28.4149 -7.45722 -64.8717
rradius 43.5923
rwrist 3.19222
rhand -9.84903 41.4007
rfingers 7.12502
rthumb 16.129 12.0518
lclavicle 2.37051e-014 -7.95139e-016
lhumerus -34.2692 11.2298 80.4047
lradius 23.7714
lwrist -7.88768
lhand -22.8008 22.1971
lfingers 7.12502
lthumb 3.63546 52.1459
rfemur -11.8899 16.0519 13.5321
rtibia 23.6584
rfoot -12.1954 -5.31774
rtoes 8.80515
lfemur -2.57975 -2.71996 -16.4441
ltibia 21.3214
lfoot -22.4749 13.654
ltoes -4.80917
89
root 11.0588 18.0968 -17.6884 1.09133 54.6544 -0.801942
lowerback -0.977345 -1.83594 -7.02581
upperback 0.314266 -2.32512 -1.19907
thorax 1.10395 -1.19492 2.64699
lowerneck 2.94434 -17.2836 -17.5863
upperneck 24.7988 -28.0397 18.5705
head 13.2411 -13.1144 5.90111
rclavicle -2.99668e-014 1.59028e-015
rhumerus -27.9776 -6.7251 -65.1027
rradius 43.245
rwrist 3.1201
rhand -10.7704 40.9237
rfingers 7.12502
rthumb 15.2417 11.5052
lclavicle -2.99668e-014 1.59028e-015
lhumerus -34.3167 11.3538 80.1202
lradius 23.74
lwrist -8.5994
lhand -21.9639 22.005
lfingers 7.12502
lthumb 4.44362 51.9384
rfemur -11.9798 15.6857 13.2404
rtibia 23.7064
rfoot -12.1965 -4.95973
rtoes 8.60226
lfemur -2.86247 -2.4194 -16.6428
ltibia 21.6029
lfoot -22.1257 13.5027
ltoes -6.74343
